<?xml version="1.0" encoding="iso-8859-1"?>
<!-- Generator: Adobe Illustrator 19.0.0, SVG Export Plug-In . SVG Version: 6.00 Build 0)  -->
<svg version="1.1" id="Capa_1" xmlns="http://www.w3.org/2000/svg" xmlns:xlink="http://www.w3.org/1999/xlink" x="0px" y="0px"
	 viewBox="0 0 512 512" style="enable-background:new 0 0 512 512;" xml:space="preserve">
<g>
	<g>
		<path d="M469.35,104.722c-4.167,0-7.544,3.378-7.544,7.544v17.421h-5.572v-13.36c0-3.466-2.34-6.379-5.525-7.263v-8.345
			c0-4.952-2.877-9.233-7.041-11.292V76.78c0-5.029-1.962-9.751-5.495-13.267c-3.543-3.562-8.264-5.524-13.295-5.524
			c-10.362,0-18.791,8.429-18.791,18.79v12.648c-4.164,2.06-7.041,6.341-7.041,11.292v8.344c-3.187,0.883-5.528,3.796-5.528,7.264
			v104.399c0,3.467,2.342,6.381,5.528,7.264v13.764c0,0.033-0.005,0.064-0.005,0.097s0.004,0.065,0.005,0.097v23.657
			c0,0.033-0.005,0.064-0.005,0.097c0,0.033,0.004,0.065,0.005,0.097v51.127c0,4.167,3.377,7.544,7.544,7.544
			s7.544-3.378,7.544-7.544v-43.68h21.486v89.318h-21.486v-17.613c0-4.167-3.377-7.544-7.544-7.544s-7.544,3.378-7.544,7.544v24.942
			c-0.029,1.028,0.159,2.081,0.543,3.035l19.078,47.267c1.153,2.856,3.923,4.721,6.995,4.721c0.037,0,0.074,0,0.11-0.001
			c3.116-0.045,5.884-2.001,6.966-4.923l17.502-47.267c0.307-0.826,0.47-1.735,0.47-2.616v-142.12
			c3.185-0.884,5.525-3.797,5.525-7.263v-75.951h5.572V268.24c0,4.167,3.377,7.544,7.544,7.544s7.544-3.378,7.544-7.544V112.266
			C476.895,108.099,473.517,104.722,469.35,104.722z M425.361,396.464l-7.592-18.811h14.558L425.361,396.464z M421.178,76.78
			c-0.001-2.041,1.66-3.702,3.702-3.702c0.985,0,1.908,0.382,2.625,1.104c0.694,0.691,1.077,1.613,1.077,2.598v11.336h-7.404V76.78z
			 M414.135,103.205h21.486v5.578h-21.486V103.205z M435.621,258.158h-21.486v-8.763h21.486V258.158z M435.621,234.307h-21.486
			v-6.037h21.486V234.307z M441.147,136.88c-0.005,0.117-0.018,0.232-0.018,0.35c0,0.119,0.012,0.234,0.018,0.351v75.6h-32.539
			v-89.31h32.539V136.88z"/>
	</g>
</g>
<g>
	<g>
		<path d="M363.605,0H42.648c-4.167,0-7.544,3.378-7.544,7.544v316.93c0,4.167,3.377,7.544,7.544,7.544s7.544-3.378,7.544-7.544
			V15.088h305.867V26.73c0,4.167,3.377,7.544,7.544,7.544s7.544-3.378,7.544-7.544V7.544C371.148,3.378,367.772,0,363.605,0z"/>
	</g>
</g>
<g>
	<g>
		<path d="M363.605,47.203c-4.167,0-7.544,3.378-7.544,7.544v442.165H50.192v-144.42c0-4.167-3.377-7.544-7.544-7.544
			s-7.544,3.378-7.544,7.544v151.964c0,4.166,3.377,7.544,7.544,7.544h320.956c4.167,0,7.544-3.378,7.544-7.544V54.747
			C371.148,50.581,367.772,47.203,363.605,47.203z"/>
	</g>
</g>
<g>
	<g>
		<path d="M311.26,148.873H163.431c-4.167-0.001-7.544,3.377-7.544,7.544s3.377,7.544,7.544,7.544H311.26
			c4.167,0,7.544-3.378,7.544-7.544S315.427,148.873,311.26,148.873z"/>
	</g>
</g>
<g>
	<g>
		<path d="M134.26,148.873H94.993c-4.167,0-7.544,3.378-7.544,7.544s3.377,7.544,7.544,7.544h39.267
			c4.167,0,7.544-3.378,7.544-7.544S138.428,148.873,134.26,148.873z"/>
	</g>
</g>
<g>
	<g>
		<path d="M123.661,204.296H94.993c-4.167,0-7.544,3.378-7.544,7.544c0,4.166,3.377,7.544,7.544,7.544h28.668
			c4.167,0,7.544-3.378,7.544-7.544C131.205,207.674,127.829,204.296,123.661,204.296z"/>
	</g>
</g>
<g>
	<g>
		<path d="M163.431,225.421H94.993c-4.167,0-7.544,3.378-7.544,7.544c0,4.166,3.377,7.544,7.544,7.544h68.438
			c4.167,0,7.544-3.378,7.544-7.544C170.975,228.799,167.598,225.421,163.431,225.421z"/>
	</g>
</g>
<g>
	<g>
		<path d="M114.627,261.533H94.993c-4.167,0-7.544,3.378-7.544,7.544s3.377,7.544,7.544,7.544h19.634
			c4.167,0,7.544-3.378,7.544-7.544S118.794,261.533,114.627,261.533z"/>
	</g>
</g>
<g>
	<g>
		<path d="M114.627,284.668H94.993c-4.167,0-7.544,3.378-7.544,7.544s3.377,7.544,7.544,7.544h19.634
			c4.167,0,7.544-3.378,7.544-7.544S118.794,284.668,114.627,284.668z"/>
	</g>
</g>
<g>
	<g>
		<path d="M114.627,307.804H94.993c-4.167,0-7.544,3.378-7.544,7.544s3.377,7.544,7.544,7.544h19.634
			c4.167,0,7.544-3.378,7.544-7.544S118.794,307.804,114.627,307.804z"/>
	</g>
</g>
<g>
	<g>
		<path d="M114.627,330.939H94.993c-4.167,0-7.544,3.378-7.544,7.544s3.377,7.544,7.544,7.544h19.634
			c4.167,0,7.544-3.378,7.544-7.544S118.794,330.939,114.627,330.939z"/>
	</g>
</g>
<g>
	<g>
		<path d="M311.26,261.532H144.077c-4.167,0-7.544,3.378-7.544,7.544s3.377,7.544,7.544,7.544H311.26
			c4.167,0,7.544-3.378,7.544-7.544S315.428,261.532,311.26,261.532z"/>
	</g>
</g>
<g>
	<g>
		<path d="M189.044,284.668h-44.967c-4.167,0-7.544,3.378-7.544,7.544s3.377,7.544,7.544,7.544h44.967
			c4.167,0,7.544-3.378,7.544-7.544S193.212,284.668,189.044,284.668z"/>
	</g>
</g>
<g>
	<g>
		<path d="M261.468,307.804H144.077c-4.167,0-7.544,3.378-7.544,7.544s3.377,7.544,7.544,7.544h117.391
			c4.167,0,7.544-3.378,7.544-7.544S265.635,307.804,261.468,307.804z"/>
	</g>
</g>
<g>
	<g>
		<path d="M295.668,330.939H144.077c-4.167,0-7.544,3.378-7.544,7.544s3.377,7.544,7.544,7.544h151.591
			c4.167,0,7.544-3.378,7.544-7.544S299.835,330.939,295.668,330.939z"/>
	</g>
</g>
<g>
	<g>
		<path d="M211.389,374.193H94.993c-4.167,0-7.544,3.378-7.544,7.544s3.377,7.544,7.544,7.544h116.395
			c4.167,0,7.544-3.378,7.544-7.544S215.556,374.193,211.389,374.193z"/>
	</g>
</g>
<g>
	<g>
		<path d="M211.389,403.364H94.993c-4.167,0-7.544,3.378-7.544,7.544s3.377,7.544,7.544,7.544h116.395
			c4.167,0,7.544-3.378,7.544-7.544S215.556,403.364,211.389,403.364z"/>
	</g>
</g>
<g>
	<g>
		<path d="M114.627,446.504H94.993c-4.167,0-7.544,3.378-7.544,7.544s3.377,7.544,7.544,7.544h19.634
			c4.167,0,7.544-3.378,7.544-7.544S118.794,446.504,114.627,446.504z"/>
	</g>
</g>
<g>
	<g>
		<path d="M192.012,97.334c-7.708,7.71-20.254,7.709-27.963,0c-7.71-7.71-7.71-20.254,0-27.964c7.711-7.709,20.255-7.709,27.964,0
			c2.947,2.946,7.723,2.946,10.67,0c2.946-2.946,2.946-7.723,0-10.669c-13.593-13.592-35.709-13.592-49.303,0
			c-13.591,13.592-13.592,35.709,0,49.302c6.797,6.796,15.724,10.195,24.651,10.195s17.855-3.398,24.651-10.195
			c2.946-2.946,2.946-7.723,0-10.669C199.736,94.388,194.96,94.388,192.012,97.334z"/>
	</g>
</g>
<g>
	<g>
		<path d="M263.09,52.311c-3.78-1.761-8.265-0.125-10.025,3.652l-15.719,33.731l-15.718-33.731c-1.759-3.777-6.25-5.41-10.025-3.652
			c-3.776,1.76-5.412,6.248-3.651,10.025l22.556,48.405c1.239,2.658,3.906,4.358,6.838,4.358s5.599-1.699,6.838-4.358l22.557-48.405
			C268.501,58.559,266.866,54.071,263.09,52.311z"/>
	</g>
</g>
<g>
	<g>
		<path d="M311.26,370.169h-64.433c-4.167,0-7.544,3.378-7.544,7.544v76.335c-0.001,4.167,3.377,7.544,7.544,7.544h64.433
			c4.167,0,7.544-3.378,7.544-7.544v-76.335C318.804,373.546,315.427,370.169,311.26,370.169z M303.716,446.504h-49.345v-61.247
			h49.345V446.504z"/>
	</g>
</g>
<g>
</g>
<g>
</g>
<g>
</g>
<g>
</g>
<g>
</g>
<g>
</g>
<g>
</g>
<g>
</g>
<g>
</g>
<g>
</g>
<g>
</g>
<g>
</g>
<g>
</g>
<g>
</g>
<g>
</g>
</svg>
