<?xml version="1.0" encoding="iso-8859-1"?>
<!-- Generator: Adobe Illustrator 19.0.0, SVG Export Plug-In . SVG Version: 6.00 Build 0)  -->
<svg version="1.1" id="Capa_1" xmlns="http://www.w3.org/2000/svg" xmlns:xlink="http://www.w3.org/1999/xlink" x="0px" y="0px"
	 viewBox="0 0 512 512" style="enable-background:new 0 0 512 512;" xml:space="preserve">
<g>
	<g>
		<path d="M452,120V0H60v60H0v392h60v60h392v-60h60V120H452z M60,422H30V150h30V422z M60,120H30V90h30V120z M422,482h-68.787
			L422,413.213V482z M332,460.787V392h68.787L332,460.787z M422,362H302v120H90V30h332V362z M482,422h-30V150h30V422z"/>
	</g>
</g>
<g>
	<g>
		<rect x="150" y="181" width="212" height="30"/>
	</g>
</g>
<g>
	<g>
		<rect x="150" y="241" width="212" height="30"/>
	</g>
</g>
<g>
	<g>
		<rect x="150" y="121" width="212" height="30"/>
	</g>
</g>
<g>
</g>
<g>
</g>
<g>
</g>
<g>
</g>
<g>
</g>
<g>
</g>
<g>
</g>
<g>
</g>
<g>
</g>
<g>
</g>
<g>
</g>
<g>
</g>
<g>
</g>
<g>
</g>
<g>
</g>
</svg>
